# xmcd
#
# Track frame offsets: 
#        150
#        27133
#        48534
#        67256
#        98573
#        118666
#        137094
#        155003
#        183951
#        201878
#        218866
#        237421
#        257019
#        278160
#        295695
#
# Disc length: 4154 seconds
#
# Revision: 0
# Processed by: cddbd v1.5.2PL0 Copyright (c) Steve Scherf et al.
# Submitted via: ExactAudioCopyFreeDBPlugin 1.0
#
DISCID=e210380f
DTITLE=Imagination - Imagination The Best
DYEAR=2008
DGENRE=Pop/Funk
TTITLE0=Body Talk
TTITLE1=Burnin' Up
TTITLE2=Changes
TTITLE3=So Good, So Right
TTITLE4=Flashback
TTITLE5=In And Out Of Love
TTITLE6=Heart'n'Soul
TTITLE7=Just An Illusion
TTITLE8=In The Heat Of The Night
TTITLE9=Music And Lights
TTITLE10=Soul Street
TTITLE11=New Dimension
TTITLE12=Backtrackin
TTITLE13=I'll Always Love You
TTITLE14=Flashback (Remix)
EXTD=
EXTT0=
EXTT1=
EXTT2=
EXTT3=
EXTT4=
EXTT5=
EXTT6=
EXTT7=
EXTT8=
EXTT9=
EXTT10=
EXTT11=
EXTT12=
EXTT13=
EXTT14=
PLAYORDER=
